<?xml version="1.0" standalone="no"?>
<!DOCTYPE svg PUBLIC "-//W3C//DTD SVG 20010904//EN"
 "http://www.w3.org/TR/2001/REC-SVG-20010904/DTD/svg10.dtd">
<svg version="1.0" xmlns="http://www.w3.org/2000/svg"
 width="192.000000pt" height="192.000000pt" viewBox="0 0 192.000000 192.000000"
 preserveAspectRatio="xMidYMid meet">

<g transform="translate(0.000000,192.000000) scale(0.100000,-0.100000)"
fill="#000000" stroke="none">
<path d="M312 1910 c-155 -32 -272 -149 -302 -305 -8 -43 -10 -242 -8 -680 3
-619 3 -620 26 -677 45 -110 124 -186 236 -225 47 -17 101 -18 701 -18 l650 0
57 23 c102 41 179 118 220 220 l23 57 0 655 0 655 -23 57 c-41 102 -118 179
-220 220 l-57 23 -630 2 c-346 1 -649 -3 -673 -7z m1306 -901 l2 -426 -77 -23
c-156 -47 -321 -27 -405 48 -71 64 -92 113 -96 223 -4 89 -2 102 22 156 15 32
39 71 54 87 62 66 162 106 264 106 l58 0 0 130 0 131 88 -3 87 -3 3 -426z
m-1076 268 c26 -50 63 -118 82 -151 l33 -59 42 77 c22 42 59 110 82 151 l40
75 91 0 c70 0 89 -3 85 -13 -3 -7 -55 -96 -117 -196 -62 -103 -109 -190 -106
-198 3 -8 55 -94 114 -191 60 -97 114 -187 121 -200 l12 -22 -105 0 -104 0
-79 146 c-44 80 -83 147 -87 147 -4 1 -43 -63 -86 -143 l-78 -145 -96 -3 c-53
-1 -96 0 -96 4 0 3 52 92 116 198 64 105 119 195 121 199 4 6 -162 297 -225
395 l-14 22 103 0 104 0 47 -93z"/>
<path d="M1314 1021 c-79 -36 -115 -116 -94 -208 18 -81 83 -133 167 -133 53
0 53 -1 53 186 l0 174 -42 0 c-24 0 -61 -9 -84 -19z"/>
</g>
</svg>
